<svg version="1.1" xmlns="http://www.w3.org/2000/svg" xmlns:xlink="http://www.w3.org/1999/xlink" width="140" height="121" viewBox="0,0,256,221.25"><g fill="#5c8ee5" fill-rule="nonzero" stroke="none" stroke-width="1" stroke-linecap="butt" stroke-linejoin="miter" stroke-miterlimit="10" stroke-dasharray="" stroke-dashoffset="0" font-family="none" font-weight="none" font-size="none" text-anchor="none" style="mix-blend-mode: normal"><g transform="translate(0,0.82934) scale(1.82857,1.82857)"><path d="M98.0283,26.4162h-13.5758l-3.4505,-5.5435l-6.6747,-10.3515l-15.8384,24.6061l-7.297,11.4262l-5.9394,9.2768l-7.2969,11.3697l-5.996,9.2768l-7.297,11.4262h-13.5192l7.297,-11.4262l5.9394,-9.2768l7.297,-11.3697l5.9394,-9.2768l29.9232,-46.5535h13.5758l6.6181,10.3515l6.7879,10.5212z"></path><path d="M137.511,87.903h-100.2908l8.0889,-11.4262l5.9394,-9.2768l7.297,-11.3697l5.9959,-9.2768l7.297,-11.4262h31.8466l7.297,11.4262h-32.9214l-5.9394,9.2768l-7.297,11.3697l-5.9394,9.2768h57.7532l-5.939,-9.2768h-34.1091l7.5798,-11.3697h32.7513l7.354,11.3697l5.939,9.2768z"></path><path d="M19.8545,120.089l-1.6404,-2.942h-8.9939l2.2061,-4.129h4.6383l-3.2808,-6.165l-7.07067,13.236h-5.71313l9.84242,-17.818c0.50908,-0.962 1.30098,-1.414 2.31918,-1.414h1.1879c0.9616,0 1.7535,0.452 2.2626,1.414l9.8424,17.818z"></path><path d="M34.901,120.089c-1.4707,0 -2.8283,-0.226 -4.0727,-0.679c-1.2445,-0.452 -2.3192,-1.131 -3.2243,-1.98c-0.905,-0.792 -1.6404,-1.81 -2.1495,-2.998c-0.509,-1.188 -0.7353,-2.489 -0.7353,-3.959c0,-1.414 0.2263,-2.772 0.7353,-3.903c0.5091,-1.188 1.2445,-2.206 2.1495,-3.055c0.9051,-0.848 1.9798,-1.527 3.2243,-1.98c1.2444,-0.452 2.602,-0.678 4.0727,-0.678h10.295v4.921h-10.6344c-0.6788,0 -1.301,0.113 -1.8666,0.339c-0.6223,0.226 -1.0748,0.566 -1.5273,0.962c-0.396,0.452 -0.7354,0.905 -0.9616,1.527c-0.2263,0.566 -0.3394,1.188 -0.3394,1.867c0,0.679 0.1131,1.301 0.3394,1.923c0.2262,0.566 0.5656,1.018 0.9616,1.414c0.4525,0.453 0.905,0.735 1.5273,0.962c0.5656,0.226 1.1878,0.339 1.8666,0.339h5.7131v-2.602h-6.2222v-4.129h11.1435v11.709z"></path><path d="M62.5051,120.089v-14.311h-7.1273v-4.921h19.3454v4.921h-7.0707v14.311z"></path><path d="M83.8869,112.509v-4.129h11.3697v4.129zM76.9859,120.089v-19.232h18.4404v4.921h-13.293v9.333h13.3495v4.978z"></path><path d="M108.097,120.089c-1.527,0 -2.885,-0.226 -4.129,-0.679c-1.245,-0.452 -2.32,-1.131 -3.168,-1.98c-0.905,-0.792 -1.6404,-1.81 -2.1495,-2.998c-0.5091,-1.188 -0.7919,-2.489 -0.7919,-3.959c0,-1.414 0.2828,-2.772 0.7919,-3.903c0.5091,-1.188 1.2445,-2.206 2.1495,-3.055c0.848,-0.848 1.923,-1.527 3.168,-1.98c1.244,-0.452 2.602,-0.678 4.129,-0.678h9.39v4.921h-9.786c-0.679,0 -1.301,0.113 -1.867,0.339c-0.565,0.226 -1.074,0.566 -1.47,0.962c-0.396,0.452 -0.736,0.905 -0.962,1.527c-0.226,0.566 -0.339,1.188 -0.339,1.867c0,0.679 0.113,1.301 0.339,1.923c0.226,0.566 0.566,1.018 0.962,1.414c0.396,0.453 0.905,0.735 1.47,0.962c0.566,0.226 1.188,0.339 1.867,0.339h9.786v4.978z"></path><path d="M134.853,120.089v-7.467h-7.524v-4.695h7.524v-7.07h5.147v19.232zM120.372,120.089v-19.232h5.204v19.232z"></path></g></g></svg>