<svg version="1.1" xmlns="http://www.w3.org/2000/svg" xmlns:xlink="http://www.w3.org/1999/xlink" width="103" height="140" viewBox="0,0,188.33751,256"><g fill="#828a99" fill-rule="none" stroke="none" stroke-width="1" stroke-linecap="butt" stroke-linejoin="miter" stroke-miterlimit="10" stroke-dasharray="" stroke-dashoffset="0" font-family="none" font-weight="none" font-size="none" text-anchor="none" style="mix-blend-mode: normal"><g transform="translate(0.88693,0) scale(1.82857,1.82857)"><path d="M16.1146,121.929c0,0.145 -0.0482,0.251 -0.135,0.328c-0.0867,0.086 -0.2024,0.125 -0.3469,0.125h-2.8047c-0.1253,0 -0.2313,-0.048 -0.318,-0.135c-0.0868,-0.087 -0.1542,-0.193 -0.1831,-0.318l-1.2241,-5.031h-6.0911l-1.22401,5.031c-0.02891,0.125 -0.09638,0.231 -0.18312,0.318c-0.08674,0.087 -0.19276,0.135 -0.31805,0.135h-2.80463c-0.14457,0 -0.26022,-0.039 -0.34696,-0.125c-0.08674,-0.077 -0.13493,-0.183 -0.13493,-0.328c0,-0.019 0.00964,-0.039 0.00964,-0.048c0.00964,-0.02 0.01927,-0.048 0.01927,-0.087l4.34669,-16.616c0.15421,-0.617 0.38552,-1.098 0.68429,-1.455c0.29878,-0.347 0.62647,-0.617 0.97343,-0.81c0.33733,-0.183 0.69393,-0.298 1.06017,-0.356c0.3566,-0.048 0.68429,-0.077 0.96379,-0.077c0.2795,0 0.60718,0.029 0.96379,0.077c0.36624,0.058 0.72284,0.173 1.06013,0.356c0.347,0.193 0.665,0.463 0.9735,0.81c0.2987,0.357 0.53,0.838 0.6842,1.455l4.3467,16.616c0,0.039 0.0097,0.067 0.0097,0.087c0.0096,0.009 0.0193,0.029 0.0193,0.048zM8.48134,106.007c-0.03855,-0.164 -0.0771,-0.27 -0.13493,-0.337c-0.04819,-0.058 -0.14456,-0.087 -0.28913,-0.087c-0.14457,0 -0.24095,0.029 -0.28914,0.087c-0.05783,0.067 -0.09638,0.173 -0.13493,0.337l-1.9083,7.865h4.66469z" fill-rule="nonzero"></path><path d="M29.2317,121.669c0,0.192 -0.0385,0.327 -0.1156,0.395c-0.0868,0.067 -0.2217,0.125 -0.4145,0.154c-0.1927,0.058 -0.4722,0.106 -0.8385,0.145c-0.3566,0.048 -0.7517,0.086 -1.1758,0.125c-0.424,0.038 -0.8578,0.058 -1.3011,0.077c-0.4433,0.019 -0.8385,0.029 -1.1951,0.029c-0.8578,0 -1.6674,-0.068 -2.4095,-0.212c-0.7421,-0.145 -1.3878,-0.415 -1.9275,-0.81c-0.5494,-0.395 -0.9831,-0.954 -1.3012,-1.657c-0.318,-0.704 -0.4819,-1.62 -0.4819,-2.757v-13.936c0,-0.145 0.0579,-0.27 0.1639,-0.376c0.106,-0.106 0.2313,-0.154 0.3662,-0.154h2.6215c0.1446,0 0.2699,0.048 0.3759,0.154c0.106,0.106 0.1639,0.231 0.1639,0.376v13.936c0,0.887 0.1445,1.484 0.4433,1.802c0.2988,0.319 0.8385,0.482 1.6192,0.482h4.8767c0.1446,0 0.2603,0.049 0.3663,0.155c0.106,0.106 0.1638,0.231 0.1638,0.375z" fill-rule="nonzero"></path><path d="M35.4289,121.852c0,0.144 -0.0482,0.26 -0.1542,0.366c-0.106,0.106 -0.2313,0.164 -0.3759,0.164h-2.6215c-0.1446,0 -0.2602,-0.058 -0.3662,-0.164c-0.1061,-0.106 -0.1639,-0.222 -0.1639,-0.366v-18.659c0,-0.135 0.0578,-0.26 0.1639,-0.357c0.106,-0.096 0.2216,-0.144 0.3662,-0.144h2.6215c0.1446,0 0.2699,0.048 0.3759,0.144c0.106,0.097 0.1542,0.222 0.1542,0.357z" fill-rule="nonzero"></path><path d="M54.03,121.929c0,0.145 -0.0385,0.251 -0.1253,0.328c-0.0867,0.086 -0.2024,0.125 -0.3469,0.125h-2.8143c-0.1157,0 -0.2217,-0.048 -0.3084,-0.135c-0.0964,-0.087 -0.1542,-0.193 -0.1928,-0.318l-1.2144,-5.031h-6.1007l-1.2144,5.031c-0.0386,0.125 -0.0964,0.231 -0.1831,0.318c-0.0964,0.087 -0.2024,0.135 -0.3181,0.135h-2.8142c-0.135,0 -0.2506,-0.039 -0.347,-0.125c-0.0868,-0.077 -0.1253,-0.183 -0.1253,-0.328c0,-0.019 0,-0.039 0.0096,-0.048c0.0097,-0.02 0.0097,-0.048 0.0097,-0.087l4.3467,-16.616c0.1638,-0.617 0.3951,-1.098 0.6939,-1.455c0.2988,-0.347 0.6168,-0.617 0.9638,-0.81c0.3469,-0.183 0.7035,-0.298 1.0601,-0.356c0.3663,-0.048 0.6843,-0.077 0.9735,-0.077c0.2795,0 0.5975,0.029 0.9638,0.077c0.3662,0.058 0.7132,0.173 1.0601,0.356c0.347,0.193 0.665,0.463 0.9638,0.81c0.2988,0.357 0.5301,0.838 0.6939,1.455l4.3467,16.616c0,0.039 0,0.067 0.0097,0.087c0.0096,0.009 0.0096,0.029 0.0096,0.048zM46.4064,106.007c-0.0385,-0.164 -0.0867,-0.27 -0.1349,-0.337c-0.0578,-0.058 -0.1542,-0.087 -0.2891,-0.087c-0.1446,0 -0.241,0.029 -0.2988,0.087c-0.0482,0.067 -0.0964,0.173 -0.1253,0.337l-1.9083,7.865h4.6647z" fill-rule="nonzero"></path><path d="M71.4168,121.322c0,0.299 -0.0964,0.549 -0.2988,0.752c-0.212,0.202 -0.4626,0.308 -0.7614,0.308h-2.6793c-0.3084,0 -0.6072,-0.039 -0.8867,-0.125c-0.2699,-0.077 -0.5108,-0.357 -0.7229,-0.829l-5.8887,-12.905c-0.0675,-0.145 -0.1446,-0.212 -0.2313,-0.212c-0.0964,0 -0.135,0.067 -0.135,0.212v13.329c0,0.144 -0.0481,0.26 -0.1445,0.366c-0.0964,0.106 -0.2217,0.164 -0.3566,0.164h-2.2553c-0.1446,0 -0.2699,-0.058 -0.3759,-0.164c-0.106,-0.106 -0.1542,-0.222 -0.1542,-0.366v-18.1c0,-0.299 0.0964,-0.549 0.3084,-0.752c0.2024,-0.202 0.453,-0.308 0.7518,-0.308h2.8624c0.2795,0 0.5109,0.048 0.6747,0.154c0.1638,0.106 0.3277,0.337 0.4915,0.694l6.1683,13.618c0.0578,0.145 0.1253,0.212 0.212,0.212c0.0964,0 0.1349,-0.077 0.1349,-0.241v-13.936c0,-0.337 0.1735,-0.501 0.5012,-0.501h2.2842c0.3373,0 0.5012,0.164 0.5012,0.501z" fill-rule="nonzero"></path><path d="M87.1072,121.563c0,0.192 -0.0578,0.327 -0.1638,0.404c-0.106,0.087 -0.2409,0.145 -0.4241,0.203c-0.106,0.038 -0.2795,0.077 -0.5397,0.116c-0.2602,0.048 -0.5686,0.086 -0.9445,0.134c-0.3662,0.049 -0.7807,0.087 -1.2433,0.116c-0.453,0.039 -0.9445,0.058 -1.4553,0.058c-0.7903,0 -1.6384,-0.116 -2.5155,-0.347c-0.8867,-0.231 -1.6866,-0.646 -2.4191,-1.253c-0.7325,-0.617 -1.33,-1.436 -1.8119,-2.487c-0.4819,-1.04 -0.7229,-2.38 -0.7229,-4.019v-3.903c0,-1.658 0.241,-3.017 0.7229,-4.067c0.4819,-1.051 1.0794,-1.879 1.8119,-2.477c0.7325,-0.598 1.5324,-1.012 2.4191,-1.234c0.8771,-0.221 1.7252,-0.327 2.5155,-0.327c0.5108,0 1.0023,0.019 1.4553,0.048c0.4626,0.038 0.8771,0.077 1.2433,0.125c0.3759,0.039 0.6843,0.087 0.9445,0.145c0.2602,0.048 0.4337,0.086 0.5397,0.106c0.1832,0.048 0.3181,0.115 0.4241,0.202c0.106,0.077 0.1638,0.212 0.1638,0.405v1.773c0,0.164 -0.0385,0.299 -0.1156,0.405c-0.0867,0.106 -0.2217,0.154 -0.4144,0.154h-0.0579c-0.2216,-0.019 -0.5011,-0.038 -0.8288,-0.067c-0.3277,-0.019 -0.6747,-0.048 -1.0506,-0.068c-0.3662,-0.009 -0.7517,-0.029 -1.1372,-0.048c-0.3855,-0.019 -0.7614,-0.029 -1.118,-0.029c-0.559,0 -1.0795,0.087 -1.5421,0.251c-0.4722,0.173 -0.877,0.443 -1.2047,0.829c-0.3373,0.376 -0.6072,0.886 -0.8,1.522c-0.1927,0.637 -0.2891,1.417 -0.2891,2.352v3.903c0,0.916 0.0964,1.687 0.2891,2.323c0.1928,0.636 0.4627,1.157 0.8,1.542c0.3277,0.386 0.7325,0.665 1.2047,0.839c0.4626,0.164 0.9831,0.25 1.5421,0.25c0.3566,0 0.7325,-0.009 1.118,-0.029c0.3855,-0.019 0.771,-0.038 1.1372,-0.057c0.3759,-0.01 0.7229,-0.039 1.0506,-0.058c0.3277,-0.029 0.6072,-0.048 0.8288,-0.068h0.0579c0.1927,0 0.3277,0.049 0.4144,0.155c0.0771,0.106 0.1156,0.24 0.1156,0.395z" fill-rule="nonzero"></path><path d="M102.027,121.669c0,0.192 -0.039,0.327 -0.116,0.395c-0.087,0.067 -0.222,0.125 -0.414,0.154c-0.212,0.039 -0.444,0.077 -0.704,0.125c-0.26,0.039 -0.578,0.077 -0.9541,0.116c-0.3759,0.039 -0.8385,0.067 -1.3782,0.096c-0.5397,0.029 -1.2048,0.039 -2.0047,0.039c-0.8578,0 -1.6674,-0.068 -2.4095,-0.212c-0.7421,-0.145 -1.3975,-0.415 -1.9468,-0.81c-0.5494,-0.395 -0.9831,-0.954 -1.3011,-1.657c-0.3277,-0.704 -0.4819,-1.62 -0.4819,-2.757v-9.243c0,-1.137 0.1542,-2.052 0.4819,-2.756c0.318,-0.713 0.7517,-1.263 1.3011,-1.658c0.5493,-0.395 1.2047,-0.665 1.9468,-0.809c0.7421,-0.145 1.5517,-0.212 2.4095,-0.212c0.7999,0 1.465,0.009 2.0047,0.038c0.5397,0.029 1.0023,0.058 1.3782,0.097c0.3761,0.029 0.6941,0.077 0.9541,0.115c0.26,0.048 0.492,0.087 0.704,0.116c0.192,0.038 0.327,0.096 0.414,0.164c0.077,0.067 0.116,0.202 0.116,0.395v1.696c0,0.145 -0.058,0.27 -0.164,0.376c-0.106,0.106 -0.222,0.154 -0.366,0.154h-5.4072c-0.7807,0 -1.3204,0.164 -1.6288,0.482c-0.3085,0.318 -0.4627,0.916 -0.4627,1.802v2.863h7.1807c0.144,0 0.26,0.048 0.366,0.154c0.106,0.106 0.164,0.231 0.164,0.376v1.908c0,0.135 -0.058,0.261 -0.164,0.367c-0.106,0.106 -0.222,0.163 -0.366,0.163h-7.1807v3.412c0,0.887 0.1542,1.484 0.4627,1.802c0.3084,0.319 0.8481,0.482 1.6288,0.482h5.4072c0.144,0 0.26,0.049 0.366,0.155c0.106,0.106 0.164,0.231 0.164,0.375z" fill-rule="nonzero"></path><path d="M9.84993,131.23c0,0.742 -0.13494,1.368 -0.39516,1.869c-0.26986,0.511 -0.62646,0.916 -1.06981,1.234c-0.45298,0.308 -0.96378,0.52 -1.5517,0.655c-0.58791,0.126 -1.20473,0.193 -1.86011,0.193c-0.23131,0 -0.49153,-0.01 -0.78067,-0.029c-0.29877,-0.009 -0.53972,-0.029 -0.73248,-0.038v4.414c0,0.086 -0.02891,0.164 -0.08674,0.231c-0.06746,0.068 -0.14456,0.106 -0.23131,0.106h-1.68663c-0.09638,0 -0.17348,-0.038 -0.24094,-0.106c-0.06747,-0.067 -0.10602,-0.145 -0.10602,-0.231v-11.633c0,-0.164 0.04819,-0.289 0.14456,-0.357c0.09638,-0.077 0.23132,-0.125 0.4048,-0.144c0.4337,-0.068 0.94451,-0.126 1.52278,-0.164c0.57828,-0.039 1.17583,-0.058 1.79265,-0.058c0.65538,0 1.2722,0.058 1.86011,0.183c0.58792,0.125 1.10836,0.337 1.5517,0.646c0.44335,0.299 0.79995,0.703 1.06981,1.205c0.26022,0.501 0.39516,1.127 0.39516,1.869zM7.49828,131.066c0,-0.714 -0.21204,-1.215 -0.6361,-1.513c-0.41443,-0.309 -1.05053,-0.453 -1.89867,-0.453c-0.08674,0 -0.20239,0 -0.34696,0.009c-0.13493,0 -0.2795,0.01 -0.42407,0.019c-0.15421,0 -0.28913,0.01 -0.41443,0.01c-0.13493,0.01 -0.24094,0.019 -0.31805,0.029v4.038c0.06747,0 0.17349,0 0.31805,0.01c0.13494,0 0.2795,0.01 0.43371,0.019c0.1542,0 0.29877,0.01 0.44334,0.01c0.13493,0.009 0.24095,0.009 0.30841,0.009c0.9156,0 1.56134,-0.163 1.9565,-0.51c0.38551,-0.338 0.57827,-0.848 0.57827,-1.523z" fill-rule="nonzero"></path><path d="M20.8178,139.663c0,0.135 -0.0674,0.202 -0.2024,0.202h-2.0625c-0.0867,0 -0.1638,-0.038 -0.2024,-0.106c-0.0481,-0.067 -0.0963,-0.145 -0.1349,-0.231l-2.4384,-4.501h-0.2313c-0.2313,0 -0.4819,-0.01 -0.7807,-0.019c-0.2891,-0.02 -0.53,-0.039 -0.7228,-0.049v4.569c0,0.086 -0.0385,0.164 -0.0964,0.231c-0.0578,0.068 -0.1349,0.106 -0.2313,0.106h-1.6866c-0.0868,0 -0.1639,-0.038 -0.2313,-0.106c-0.0675,-0.067 -0.106,-0.145 -0.106,-0.231v-11.633c0,-0.164 0.0481,-0.289 0.1445,-0.357c0.0964,-0.077 0.2313,-0.125 0.3952,-0.144c0.4433,-0.068 0.9541,-0.126 1.5228,-0.164c0.5782,-0.039 1.1758,-0.058 1.8023,-0.058c0.6457,0 1.2722,0.067 1.8601,0.193c0.5879,0.135 1.0987,0.347 1.542,0.636c0.453,0.289 0.8096,0.684 1.0698,1.176c0.2699,0.491 0.3952,1.089 0.3952,1.812v0.154c0,0.906 -0.2024,1.629 -0.6168,2.197c-0.4145,0.559 -0.9735,0.983 -1.677,1.253l2.6504,4.935c0.0289,0.029 0.0385,0.077 0.0385,0.135zM18.0807,130.989c0,-0.637 -0.2121,-1.099 -0.6361,-1.379c-0.4241,-0.289 -1.0602,-0.424 -1.8987,-0.424c-0.0964,0 -0.212,0 -0.3469,0.01c-0.1446,0 -0.2892,0.01 -0.4338,0.01c-0.1445,0.009 -0.2795,0.009 -0.4144,0.019c-0.1253,0.009 -0.2313,0.019 -0.3084,0.029v3.797c0.0675,0 0.1735,0 0.3084,0.01c0.1446,0.009 0.2892,0.009 0.4434,0.019c0.1542,0 0.2987,0.01 0.4337,0.019c0.1445,0 0.2506,0 0.318,0c0.8771,0 1.5228,-0.135 1.9276,-0.414c0.4048,-0.289 0.6072,-0.8 0.6072,-1.542z" fill-rule="nonzero"></path><path d="M31.6605,134.728c0,0.935 -0.1157,1.735 -0.3566,2.4c-0.2506,0.665 -0.5783,1.205 -1.0024,1.629c-0.4337,0.424 -0.9348,0.732 -1.5228,0.935c-0.5879,0.202 -1.224,0.308 -1.9275,0.308c-0.694,0 -1.3301,-0.106 -1.918,-0.308c-0.5879,-0.203 -1.0891,-0.511 -1.5228,-0.935c-0.424,-0.424 -0.7517,-0.964 -1.0023,-1.629c-0.241,-0.665 -0.3566,-1.465 -0.3566,-2.4v-2.284c0,-0.925 0.1156,-1.725 0.3566,-2.39c0.2506,-0.675 0.5783,-1.215 1.0023,-1.639c0.4337,-0.424 0.9349,-0.732 1.5228,-0.935c0.5879,-0.202 1.224,-0.308 1.918,-0.308c0.7035,0 1.3396,0.106 1.9275,0.308c0.588,0.203 1.0891,0.511 1.5228,0.935c0.4241,0.424 0.7518,0.964 1.0024,1.639c0.2409,0.665 0.3566,1.465 0.3566,2.39zM29.3185,132.444c0,-1.128 -0.2024,-1.947 -0.6072,-2.458c-0.3952,-0.511 -1.0216,-0.771 -1.8601,-0.771c-0.8289,0 -1.4554,0.26 -1.8505,0.771c-0.4048,0.511 -0.6072,1.33 -0.6072,2.458v2.284c0,1.128 0.2024,1.947 0.6072,2.458c0.3951,0.511 1.0216,0.771 1.8505,0.771c0.8385,0 1.4649,-0.26 1.8601,-0.771c0.4048,-0.511 0.6072,-1.33 0.6072,-2.458z" fill-rule="nonzero"></path><path d="M42.9657,134.824c0,1.677 -0.453,2.959 -1.3782,3.846c-0.9156,0.887 -2.2264,1.33 -3.9323,1.33c-0.3084,0 -0.6264,-0.01 -0.9638,-0.019c-0.3276,-0.01 -0.6553,-0.029 -0.9637,-0.048c-0.3085,-0.029 -0.588,-0.049 -0.8385,-0.068c-0.2603,-0.029 -0.453,-0.048 -0.5687,-0.067c-0.1542,-0.029 -0.2602,-0.078 -0.3373,-0.155c-0.0675,-0.077 -0.106,-0.202 -0.106,-0.375v-11.373c0,-0.164 0.0385,-0.289 0.106,-0.366c0.0771,-0.078 0.1831,-0.135 0.3373,-0.155c0.1157,-0.019 0.3084,-0.048 0.5687,-0.067c0.2505,-0.019 0.53,-0.048 0.8385,-0.068c0.3084,-0.019 0.6361,-0.038 0.9637,-0.048c0.3374,-0.009 0.6554,-0.019 0.9638,-0.019c1.7059,0 3.0167,0.443 3.9323,1.33c0.9252,0.877 1.3782,2.159 1.3782,3.846zM40.6237,132.348c0,-0.627 -0.0771,-1.157 -0.2313,-1.562c-0.1542,-0.414 -0.3662,-0.742 -0.6265,-0.983c-0.2698,-0.241 -0.5782,-0.414 -0.9445,-0.511c-0.3662,-0.096 -0.7614,-0.144 -1.1758,-0.144c-0.3181,0 -0.5879,0.009 -0.8096,0.019c-0.2313,0.01 -0.4337,0.019 -0.6072,0.029v8.79c0.1735,0.009 0.3759,0.019 0.6072,0.038c0.2217,0.01 0.4915,0.01 0.8096,0.01c0.4144,0 0.8096,-0.048 1.1758,-0.145c0.3663,-0.086 0.6747,-0.26 0.9445,-0.501c0.2603,-0.25 0.4723,-0.569 0.6265,-0.983c0.1542,-0.414 0.2313,-0.935 0.2313,-1.571z" fill-rule="nonzero"></path><path d="M54.3577,135.22c0,0.896 -0.1157,1.648 -0.347,2.255c-0.2313,0.617 -0.5493,1.099 -0.9638,1.474c-0.4144,0.376 -0.9059,0.637 -1.4746,0.8c-0.5686,0.164 -1.1854,0.251 -1.8601,0.251c-0.6746,0 -1.3011,-0.087 -1.8697,-0.251c-0.5687,-0.163 -1.0602,-0.424 -1.4746,-0.8c-0.4048,-0.375 -0.7228,-0.857 -0.9542,-1.474c-0.2313,-0.607 -0.3469,-1.359 -0.3469,-2.255v-7.595c0,-0.087 0.0289,-0.164 0.0964,-0.222c0.0674,-0.067 0.1445,-0.096 0.2409,-0.096h1.6674c0.0963,0 0.1734,0.029 0.2409,0.096c0.0675,0.058 0.0964,0.135 0.0964,0.222v7.604c0,0.482 0.0385,0.906 0.106,1.263c0.0675,0.347 0.1831,0.646 0.3662,0.886c0.1735,0.241 0.4048,0.415 0.694,0.521c0.2987,0.116 0.6746,0.173 1.1372,0.173c0.4434,0 0.8193,-0.057 1.118,-0.173c0.2988,-0.106 0.5398,-0.28 0.7132,-0.521c0.1735,-0.24 0.2988,-0.539 0.3663,-0.886c0.0674,-0.357 0.0964,-0.781 0.0964,-1.263v-7.604c0,-0.087 0.0385,-0.164 0.106,-0.222c0.0674,-0.067 0.1445,-0.096 0.2313,-0.096h1.677c0.0867,0 0.1638,0.029 0.2313,0.096c0.0674,0.058 0.106,0.135 0.106,0.222z" fill-rule="nonzero"></path><path d="M64.2751,139.335c0,0.125 -0.0289,0.212 -0.0964,0.27c-0.0675,0.048 -0.1638,0.087 -0.2795,0.125c-0.0675,0.019 -0.1831,0.048 -0.3373,0.077c-0.1639,0.029 -0.3663,0.048 -0.6072,0.077c-0.2313,0.029 -0.5012,0.058 -0.7903,0.077c-0.2891,0.029 -0.6072,0.039 -0.9349,0.039c-0.5012,0 -1.0409,-0.077 -1.5999,-0.222c-0.5686,-0.144 -1.0794,-0.414 -1.542,-0.8c-0.4627,-0.395 -0.8482,-0.915 -1.1566,-1.58c-0.3084,-0.665 -0.4626,-1.523 -0.4626,-2.574v-2.476c0,-1.061 0.1542,-1.928 0.4626,-2.603c0.3084,-0.665 0.6939,-1.195 1.1566,-1.58c0.4626,-0.376 0.9734,-0.636 1.542,-0.781c0.559,-0.145 1.0987,-0.212 1.5999,-0.212c0.3277,0 0.6458,0.01 0.9349,0.039c0.2891,0.019 0.559,0.048 0.7903,0.067c0.2409,0.029 0.4433,0.067 0.6072,0.096c0.1542,0.039 0.2698,0.058 0.3373,0.068c0.1157,0.038 0.212,0.077 0.2795,0.125c0.0675,0.048 0.0964,0.145 0.0964,0.26v1.138c0,0.096 -0.0289,0.183 -0.0771,0.25c-0.0482,0.068 -0.1349,0.106 -0.2602,0.106h-0.0386c-0.1446,-0.009 -0.318,-0.029 -0.5301,-0.048c-0.2024,-0.01 -0.424,-0.029 -0.665,-0.039c-0.2409,-0.009 -0.4819,-0.019 -0.7228,-0.038c-0.2506,-0.01 -0.4916,-0.01 -0.7132,-0.01c-0.3566,0 -0.694,0.048 -0.9927,0.154c-0.2988,0.107 -0.5494,0.29 -0.7614,0.531c-0.2217,0.241 -0.3855,0.559 -0.5108,0.963c-0.1253,0.415 -0.1832,0.916 -0.1832,1.514v2.476c0,0.588 0.0579,1.08 0.1832,1.494c0.1253,0.405 0.2891,0.733 0.5108,0.974c0.212,0.25 0.4626,0.424 0.7614,0.53c0.2987,0.115 0.6361,0.164 0.9927,0.164c0.2216,0 0.4626,-0.01 0.7132,-0.02c0.2409,-0.009 0.4819,-0.019 0.7228,-0.029c0.241,-0.009 0.4626,-0.028 0.665,-0.048c0.2121,-0.009 0.3855,-0.029 0.5301,-0.038h0.0386c0.1253,0 0.212,0.038 0.2602,0.106c0.0482,0.067 0.0771,0.144 0.0771,0.25z" fill-rule="nonzero"></path><path d="M74.4141,128.965c0,0.086 -0.0385,0.163 -0.106,0.221c-0.0674,0.058 -0.1445,0.077 -0.2313,0.077h-2.9588v10.265c0,0.086 -0.0289,0.164 -0.0964,0.231c-0.0675,0.068 -0.1542,0.106 -0.2409,0.106h-1.677c-0.0868,0 -0.1639,-0.038 -0.2313,-0.106c-0.0675,-0.067 -0.1061,-0.145 -0.1061,-0.231v-10.265h-2.9491c-0.0964,0 -0.1735,-0.019 -0.241,-0.077c-0.0675,-0.058 -0.0964,-0.135 -0.0964,-0.221v-1.34c0,-0.087 0.0289,-0.164 0.0964,-0.222c0.0675,-0.067 0.1446,-0.096 0.241,-0.096h8.2596c0.0868,0 0.1639,0.029 0.2313,0.096c0.0675,0.058 0.106,0.135 0.106,0.222z" fill-rule="nonzero"></path><path d="M78.4524,139.528c0,0.086 -0.0385,0.164 -0.106,0.231c-0.0675,0.068 -0.1446,0.106 -0.2313,0.106h-1.677c-0.0867,0 -0.1638,-0.038 -0.2313,-0.106c-0.0675,-0.067 -0.106,-0.145 -0.106,-0.231v-11.903c0,-0.087 0.0385,-0.164 0.106,-0.222c0.0675,-0.067 0.1446,-0.096 0.2313,-0.096h1.677c0.0867,0 0.1638,0.029 0.2313,0.096c0.0675,0.058 0.106,0.135 0.106,0.222z" fill-rule="nonzero"></path><path d="M90.2588,134.728c0,0.935 -0.1156,1.735 -0.3566,2.4c-0.2409,0.665 -0.5782,1.205 -1.0023,1.629c-0.4337,0.424 -0.9349,0.732 -1.5228,0.935c-0.5879,0.202 -1.224,0.308 -1.9179,0.308c-0.7036,0 -1.3397,-0.106 -1.9276,-0.308c-0.5783,-0.203 -1.0891,-0.511 -1.5132,-0.935c-0.4337,-0.424 -0.7614,-0.964 -1.0023,-1.629c-0.2409,-0.665 -0.3662,-1.465 -0.3662,-2.4v-2.284c0,-0.925 0.1253,-1.725 0.3662,-2.39c0.2409,-0.675 0.5686,-1.215 1.0023,-1.639c0.4241,-0.424 0.9349,-0.732 1.5132,-0.935c0.5879,-0.202 1.224,-0.308 1.9276,-0.308c0.6939,0 1.33,0.106 1.9179,0.308c0.5879,0.203 1.0891,0.511 1.5228,0.935c0.4241,0.424 0.7614,0.964 1.0023,1.639c0.241,0.665 0.3566,1.465 0.3566,2.39zM87.9168,132.444c0,-1.128 -0.2024,-1.947 -0.6072,-2.458c-0.3951,-0.511 -1.0216,-0.771 -1.8504,-0.771c-0.8385,0 -1.4554,0.26 -1.8601,0.771c-0.4048,0.511 -0.5976,1.33 -0.5976,2.458v2.284c0,1.128 0.1928,1.947 0.5976,2.458c0.4047,0.511 1.0216,0.771 1.8601,0.771c0.8288,0 1.4553,-0.26 1.8504,-0.771c0.4048,-0.511 0.6072,-1.33 0.6072,-2.458z" fill-rule="nonzero"></path><path d="M101.969,139.19c0,0.184 -0.058,0.347 -0.193,0.482c-0.125,0.126 -0.289,0.193 -0.482,0.193h-1.7057c-0.2024,0 -0.3855,-0.029 -0.559,-0.077c-0.1831,-0.048 -0.3373,-0.231 -0.4722,-0.53l-3.7492,-8.231c-0.0482,-0.096 -0.0964,-0.135 -0.1542,-0.135c-0.0578,0 -0.0771,0.039 -0.0771,0.135v8.501c0,0.086 -0.0385,0.164 -0.0964,0.231c-0.0674,0.068 -0.1349,0.106 -0.2313,0.106h-1.436c-0.0868,0 -0.1639,-0.038 -0.2313,-0.106c-0.0675,-0.067 -0.106,-0.145 -0.106,-0.231v-11.546c0,-0.193 0.0674,-0.347 0.1927,-0.482c0.1349,-0.126 0.2892,-0.193 0.4819,-0.193h1.8312c0.1735,0 0.3181,0.038 0.4241,0.106c0.106,0.067 0.212,0.212 0.318,0.434l3.9323,8.683c0.0385,0.097 0.0771,0.135 0.1349,0.135c0.0578,0 0.0867,-0.048 0.0867,-0.144v-8.896c0,-0.212 0.1061,-0.318 0.3186,-0.318h1.455c0.212,0 0.318,0.106 0.318,0.318z" fill-rule="nonzero"></path><path d="M50.9459,9.87884c4.6262,0 9.0403,0.90596 13.069,2.55406v31.5833c0,7.161 -5.802,12.963 -12.963,12.963c-3.0456,0 -5.8406,-1.0505 -8.0573,-2.8046v11.4787c2.5059,0.9349 5.2238,1.4457 8.0573,1.4457c14.081,0 23.1309,-11.1221 23.1309,-24.6055v-35.92046c-6.7561,-4.16357 -14.717,-6.57304 -23.2369,-6.57304c-24.5092,0 -44.37286,19.8637 -44.37286,44.3728c0,13.9943 6.47666,26.4753 16.59646,34.6097v-14.1388c-4.2214,-5.7249 -6.7273,-12.8087 -6.7273,-20.4709c0,-19.0541 15.4496,-34.49396 34.5037,-34.49396z" fill-rule="evenodd"></path><path d="M51.0808,78.8958c-4.6262,0 -9.0403,-0.906 -13.069,-2.5637v-31.5834c0,-7.1513 5.802,-12.9629 12.963,-12.9629c3.0456,0 5.8406,1.0505 8.0573,2.8142v-11.4787c-2.5059,-0.9349 -5.2238,-1.4457 -8.0573,-1.4457c-14.081,0 -23.1406,11.1125 -23.1406,24.6055v35.9205c6.7658,4.1635 14.7267,6.573 23.2466,6.573c24.5092,0 44.3729,-19.8733 44.3729,-44.3728c0,-13.9943 -6.4767,-26.4753 -16.6061,-34.6097v14.1388c4.231,5.7249 6.7272,12.8087 6.7272,20.4709c0,19.0541 -15.4399,34.494 -34.494,34.494z" fill-rule="evenodd"></path></g></g></svg>